<svg width="124.128" height="119.803" xmlns="http://www.w3.org/2000/svg">

 <g>
  <title>Layer 1</title>
  <path id="svg_1" fill="#fff" d="m6.1,38.659c-0.006,20.348 -0.014,46.714 -0.02,67.22a6.777,6.777 0 0 0 6.781,6.781c23.573,0.007 73.768,0.03 98.418,0.034a6.776,6.776 0 0 0 6.781,-6.78c0,-20.5 0.008,-46.863 0.02,-67.216a6.773,6.773 0 0 0 -6.776,-6.783c-20.673,-0.007 -75.388,-0.027 -98.421,-0.033a6.776,6.776 0 0 0 -6.783,6.777z" class="a"/>
  <path id="svg_4" fill="#fff" d="m59.894,28.156c0,4.558 0,6.508 0,10.692a2.159,2.159 0 0 0 2.154,2.16l0.065,0a2.16,2.16 0 0 0 2.167,-2.159c0,-4.187 0,-6.155 0.005,-10.685c-0.523,0.001 -3.73,-0.008 -4.391,-0.008z" class="a"/>
  <path id="svg_5" fill="#fff" d="m62.084,22.466a5.384,5.384 0 0 0 -5.491,5.457c0,3.406 2.124,5.559 5.491,5.559c3.446,0 5.491,-2.153 5.491,-5.559a5.379,5.379 0 0 0 -5.491,-5.457z" class="a"/>
  <path id="svg_14" fill="#211715" d="m82.584,33.9q9.513,0.007 19.025,0.009l7.445,0c2.108,0 4.182,-0.163 5.745,1.521c1.718,1.851 1.285,4.456 1.284,6.78q0,4.286 0,8.57q0,9.079 -0.007,18.159q-0.006,17.9 -0.008,35.8c0,2.221 -0.4,4.278 -2.555,5.4c-1.648,0.86 -3.743,0.544 -5.546,0.544l-12.373,0q-29.932,-0.007 -59.864,-0.022l-13.386,0l-5.777,0c-1.742,0 -3.86,0.324 -5.5,-0.341a4.946,4.946 0 0 1 -2.982,-4.82c-0.013,-2.81 0,-5.621 0,-8.431q0,-9.011 0,-18.021q0,-18.038 0.009,-36.076c0,-2.272 -0.517,-5.123 0.888,-7.088c1.368,-1.912 3.377,-2 5.523,-2l16.961,0l10.11,0.007c2.574,0 2.578,-4 0,-4q-10.229,-0.009 -20.458,-0.01c-2.641,0 -5.283,-0.017 -7.924,0a9.016,9.016 0 0 0 -6.962,3.051c-1.966,2.327 -2.127,4.946 -2.132,7.868l0,9.11q0,9.49 0,18.99q0,9.861 0,19.722l0,9.267c0,2.868 -0.217,5.829 0.031,8.686a8.927,8.927 0 0 0 3.943,6.656c2.088,1.409 4.44,1.432 6.855,1.432l12.535,0q31.445,0.009 62.888,0.024l13.758,0c4.33,0 9.539,0.865 13.039,-2.238a9.317,9.317 0 0 0 2.927,-7.317q0,-4.434 0,-8.867q0,-9.472 0,-18.946q0.006,-18.926 0.015,-37.85a9.328,9.328 0 0 0 -2.927,-7.318c-2.125,-1.887 -4.593,-2.243 -7.327,-2.243q-8.427,0 -16.853,0l-10.4,-0.008c-2.574,0 -2.578,4 0,4z" class="c"/>
  <path id="svg_15" fill="#211715" d="m15.4,46.772q17.246,15.264 35.073,29.857q2.219,1.813 4.45,3.613a34.723,34.723 0 0 0 4.2,3.3a5.757,5.757 0 0 0 4.974,0.326c1.675,-0.676 3.106,-2.142 4.511,-3.255q9.69,-7.669 19.1,-15.684q10.655,-9.031 21.064,-18.345c1.925,-1.717 -0.912,-4.537 -2.829,-2.829c-11.8,10.521 -23.777,20.862 -36.094,30.78q-2.029,1.633 -4.07,3.25c-0.737,0.583 -1.469,1.173 -2.215,1.744a2.555,2.555 0 0 1 -1.759,0.777a3.4,3.4 0 0 1 -1.7,-1q-1.01,-0.807 -2.016,-1.619q-2.055,-1.654 -4.1,-3.322q-8.666,-7.065 -17.181,-14.312q-9.37,-7.962 -18.582,-16.108c-1.922,-1.7 -4.761,1.118 -2.829,2.828l0.003,-0.001z" class="c"/>
  <path id="svg_16" fill="#211715" d="m76.442,13.9l-28.7,-0.012a6.142,6.142 0 0 0 -6.149,6.143c0,7.417 0,15.893 -0.007,23.35a6.144,6.144 0 0 0 6.145,6.148l28.7,0.013a6.142,6.142 0 0 0 6.147,-6.146c0,-7.455 0,-15.93 0.007,-23.348a6.141,6.141 0 0 0 -6.143,-6.148zm-12.165,19.224c0,1.769 0,3.408 0,5.726a2.16,2.16 0 0 1 -2.167,2.159l-0.066,0a2.158,2.158 0 0 1 -2.153,-2.16c0,-2.323 0,-3.958 0,-5.733a5.118,5.118 0 0 1 -3.3,-5.192a5.491,5.491 0 0 1 10.982,0c0.002,2.6 -1.198,4.461 -3.296,5.2z" class="c"/>
  <path id="svg_17" fill="#211715" d="m54.683,14.624a7.4,7.4 0 0 1 14.8,0c0.032,2.572 4.032,2.579 4,0a11.385,11.385 0 0 0 -7.411,-10.661a11.345,11.345 0 0 0 -15.392,10.661c-0.033,2.575 3.967,2.577 4,0l0.003,0z" class="c"/>
 </g>
</svg>